<svg width="24" height="24" viewBox="0 0 24 24" fill="none" xmlns="http://www.w3.org/2000/svg">
<g id="Plus Small" clip-path="url(#clip0_768_260)">
<g id="Group 125">
<path id="Vector" d="M11.9973 6.74604C11.6328 6.74604 11.3373 7.04151 11.3373 7.40599L11.3373 11.34L7.60113 11.3398C7.23655 11.3398 6.94098 11.6354 6.94099 12C6.941 12.3645 7.23656 12.6601 7.60113 12.6601L11.3373 12.6599L11.3373 16.6455C11.3373 17.01 11.6328 17.3055 11.9973 17.3055C12.3618 17.3055 12.6573 17.01 12.6573 16.6455L12.6573 12.6599L16.4162 12.6599C16.7807 12.6599 17.0762 12.3645 17.0762 12C17.0762 11.6355 16.7807 11.34 16.4162 11.34L12.6572 11.34L12.6572 7.40599C12.6572 7.04151 12.3618 6.74604 11.9973 6.74604Z" fill="#F8F8F8"/>
<path id="Vector_2" d="M12 2.1005C9.37449 2.1005 6.85652 3.14348 5 5C3.14348 6.85652 2.10051 9.37449 2.10051 12C2.10051 14.6255 3.14348 17.1435 5 19C6.85652 20.8565 9.37449 21.8995 12 21.8995C14.6255 21.8995 17.1435 20.8565 19 19C20.8565 17.1435 21.8995 14.6255 21.8995 12C21.8995 9.37449 20.8565 6.85652 19 5C17.1435 3.14348 14.6255 2.10051 12 2.1005ZM18.0667 18.0667C14.7215 21.4118 9.27849 21.4118 5.93335 18.0667C2.5882 14.7215 2.5882 9.27849 5.93335 5.93335C9.27849 2.5882 14.7215 2.5882 18.0667 5.93335C21.4118 9.27849 21.4118 14.7215 18.0667 18.0667Z" fill="#F8F8F8"/>
</g>
</g>
<defs>
<clipPath id="clip0_768_260">
<rect width="24" height="24" fill="white"/>
</clipPath>
</defs>
</svg>
