<svg width="24" height="24" viewBox="0 0 24 24" fill="none" xmlns="http://www.w3.org/2000/svg">
<g id="Cross Small" clip-path="url(#clip0_768_265)">
<g id="Group 125">
<path id="Vector" d="M15.7302 8.29246C15.4725 8.03474 15.0546 8.03473 14.7969 8.29246L12.0151 11.0742L9.37332 8.43222C9.11553 8.17441 8.69755 8.1744 8.43975 8.43221C8.18197 8.69001 8.18198 9.10797 8.43978 9.36575L11.0818 12.0075L8.26354 14.8258C8.00581 15.0835 8.00581 15.5014 8.26354 15.7591C8.52128 16.0169 8.93914 16.0169 9.19688 15.7591L12.0151 12.9409L14.6731 15.5989C14.9308 15.8566 15.3487 15.8566 15.6064 15.5989C15.8641 15.3411 15.8641 14.9233 15.6064 14.6655L12.9484 12.0075L15.7302 9.22578C15.9879 8.96805 15.9879 8.55019 15.7302 8.29246Z" fill="#F8F8F8"/>
<path id="Vector_2" d="M12 2.1005C9.37449 2.1005 6.85652 3.14348 5 5C3.14348 6.85652 2.10051 9.37449 2.10051 12C2.10051 14.6255 3.14348 17.1435 5 19C6.85652 20.8565 9.37449 21.8995 12 21.8995C14.6255 21.8995 17.1435 20.8565 19 19C20.8565 17.1435 21.8995 14.6255 21.8995 12C21.8995 9.37449 20.8565 6.85652 19 5C17.1435 3.14348 14.6255 2.10051 12 2.1005ZM18.0667 18.0667C14.7215 21.4118 9.27849 21.4118 5.93335 18.0667C2.5882 14.7215 2.5882 9.27849 5.93335 5.93335C9.27849 2.5882 14.7215 2.5882 18.0667 5.93335C21.4118 9.27849 21.4118 14.7215 18.0667 18.0667Z" fill="#F8F8F8"/>
</g>
</g>
<defs>
<clipPath id="clip0_768_265">
<rect width="24" height="24" fill="white"/>
</clipPath>
</defs>
</svg>
